<svg width="30" height="30" viewBox="0 0 30 30" fill="none" xmlns="http://www.w3.org/2000/svg">
<g clip-path="url(#clip0)">
<path d="M12.0004 21.5242C11.9957 21.5191 11.9942 21.5123 11.9892 21.5073C11.9798 21.4979 11.9672 21.4946 11.9572 21.4861C11.7546 21.2927 11.5027 21.1586 11.2291 21.0985L11.0133 21.0529C9.74034 20.7355 8.4383 20.5489 7.12741 20.4961C5.96409 20.5476 4.81172 20.744 3.69697 21.0807C3.23352 21.2106 2.8528 21.5415 2.6596 21.9824C2.44085 22.4646 2.45017 23.0196 2.68496 23.4943C2.77383 23.6746 2.85778 23.8636 2.93733 24.0589C3.02521 24.2759 3.11062 24.4953 3.19802 24.7213C3.5856 25.7191 3.92005 26.5808 4.51465 27.1214C5.24898 27.7231 6.17891 28.0338 7.12741 27.9945C8.18979 28.0481 9.24755 27.8215 10.1946 27.3372C10.8144 26.9649 11.3245 26.4351 11.6728 25.8016C11.9534 25.2272 12.1504 24.6155 12.2577 23.9853C12.307 23.7668 12.3577 23.5457 12.4114 23.3262L12.4397 23.2169C12.5667 22.7447 12.495 22.2412 12.2416 21.8231C12.1731 21.7145 12.0922 21.6141 12.0004 21.5242ZM4.50452 25.2863C4.37968 25.002 4.25724 24.6868 4.12801 24.3535C4.04114 24.1296 3.95373 23.9063 3.86392 23.683C3.77459 23.4637 3.68068 23.2537 3.58226 23.0527C3.48109 22.8456 3.47693 22.6043 3.57101 22.3939C3.64149 22.2256 3.78373 22.0978 3.95865 22.0458C4.98876 21.7348 6.05278 21.5501 7.12747 21.4959C7.4929 21.4998 7.85781 21.5245 8.22037 21.57L4.50452 25.2863ZM5.96784 26.8218C5.67973 26.7315 5.41383 26.5817 5.18735 26.3821C5.12432 26.3232 5.06609 26.2595 5.01307 26.1914L9.44497 21.7591C9.87678 21.8396 10.3154 21.9278 10.7668 22.0229L5.96784 26.8218ZM11.4737 22.9595L11.441 23.0855C11.3854 23.3134 11.3337 23.54 11.2824 23.764C11.1936 24.298 11.0325 24.8174 10.8035 25.3079C10.543 25.7872 10.1601 26.1888 9.69382 26.472C8.92418 26.8532 8.07011 27.0319 7.21218 26.9912L11.4963 22.7072C11.5021 22.7919 11.4945 22.877 11.4737 22.9595Z" fill="black"/>
<path d="M29.3365 20.0563C28.0892 19.5872 24.9516 18.4961 22.7665 18.4961C21.4213 18.5442 20.0849 18.7331 18.779 19.0597C17.5417 19.3716 16.2751 19.5531 15 19.6011C13.7249 19.5531 12.4583 19.3717 11.221 19.0597C9.91516 18.7331 8.57873 18.5442 7.23351 18.4961C5.04841 18.4961 1.91087 19.5872 0.664016 20.0561C0.2598 20.2173 -0.00311576 20.6112 0.00303534 21.0463V22.8636C0.00303534 23.139 0.154353 23.2525 0.558568 23.5564C0.618146 23.601 0.669874 23.6391 0.672803 23.6391C0.937008 23.9153 1.15523 24.2322 1.31902 24.5776L0.288095 25.9494C0.103503 26.1963 0.00356258 26.4962 0.00297676 26.8045V28.0691C0.00438273 28.8574 0.644566 29.4953 1.43285 29.4939C1.97057 29.4916 2.4616 29.1881 2.70407 28.7081L3.00847 28.1016C3.16037 28.2991 3.32809 28.4839 3.5101 28.6542C4.53564 29.558 5.86715 30.037 7.23346 29.9938C8.55337 30.0473 9.86338 29.7443 11.0256 29.1165C11.9251 28.574 12.6644 27.8023 13.1678 26.8804C13.5453 26.144 13.81 25.3552 13.9533 24.5402C13.9962 24.3503 14.0392 24.1585 14.0865 23.9642C14.1915 23.5334 14.4498 22.8108 15 22.8108C15.5502 22.8108 15.8084 23.5333 15.9134 23.9642C15.9607 24.1585 16.0037 24.3504 16.0466 24.5402C16.1898 25.3551 16.4546 26.1439 16.8321 26.8801C17.3354 27.8021 18.0747 28.5738 18.9743 29.1162C20.1365 29.7442 21.4466 30.0473 22.7665 29.9937C24.1328 30.037 25.4643 29.558 26.4899 28.6541C26.6718 28.4839 26.8396 28.2991 26.9915 28.1016L27.2954 28.7073C27.5919 29.2979 28.2552 29.6075 28.8984 29.4555C29.5415 29.3035 29.9961 28.7298 29.997 28.069V26.8044C29.9964 26.4961 29.8964 26.1961 29.7119 25.9491L28.6807 24.5776C28.839 24.2409 29.0494 23.9314 29.3043 23.6605C29.3282 23.6405 29.3809 23.6016 29.4415 23.5562C29.8457 23.2523 29.997 23.1388 29.997 22.8635V21.0462C30.0032 20.6113 29.7405 20.2176 29.3365 20.0563ZM1.81029 28.2607C1.72095 28.4364 1.52294 28.5281 1.33115 28.4826C1.13935 28.4371 1.00367 28.2662 1.0028 28.0691V26.8045C1.00297 26.7126 1.03279 26.6232 1.08774 26.5497L1.75985 25.6539C1.94268 26.1514 2.15153 26.6388 2.38545 27.1143L1.81029 28.2607ZM28.9122 26.5494C28.9672 26.6231 28.9969 26.7125 28.9972 26.8044V28.069C28.9963 28.2663 28.8603 28.4373 28.6683 28.4826C28.4763 28.5279 28.2782 28.4358 28.1892 28.2597L27.6145 27.1143C27.8483 26.6391 28.0571 26.1519 28.2398 25.6548L28.9122 26.5494ZM28.9972 22.6395C28.9469 22.6778 28.8907 22.7193 28.8409 22.7566C28.7272 22.8421 28.6354 22.9165 28.6144 22.938C28.2316 23.3416 27.923 23.8095 27.7029 24.3203C27.6516 24.3849 27.6175 24.4613 27.6035 24.5426C27.5946 24.5643 27.5844 24.5832 27.5756 24.6052C27.4965 24.8017 27.4203 25.0001 27.3442 25.1988C26.9448 26.2399 26.5675 27.2233 25.8123 27.919C24.9674 28.646 23.8805 29.0296 22.7665 28.9939C21.6242 29.0454 20.489 28.7897 19.4791 28.2536C18.733 27.8006 18.1205 27.1577 17.704 26.3907C17.3758 25.7382 17.1459 25.0408 17.022 24.321C16.9781 24.1252 16.9337 23.9273 16.8848 23.7274C16.588 22.5097 15.9011 21.8111 15 21.8111C14.0988 21.8111 13.4119 22.5097 13.1151 23.7274C13.0663 23.9273 13.0218 24.1253 12.9779 24.321C12.854 25.0409 12.6241 25.7384 12.2959 26.391C11.8794 27.1579 11.2668 27.8006 10.5208 28.2536C9.51089 28.7897 8.37569 29.0454 7.23346 28.9939C6.1194 29.0296 5.03253 28.646 4.18766 27.919C3.43242 27.2233 3.0551 26.2398 2.65574 25.1988C2.57959 25.0001 2.50343 24.8017 2.42435 24.6052C2.41526 24.5825 2.40472 24.563 2.39546 24.5406C2.38111 24.4694 2.35106 24.4022 2.30759 24.3439C2.08633 23.8242 1.77403 23.3481 1.38545 22.9381C1.36448 22.9166 1.27268 22.8422 1.15892 22.7567C1.10912 22.7193 1.053 22.6779 1.00268 22.6395V21.0463C1.00291 21.0277 1.00707 21.0092 1.01486 20.9922C1.94843 20.6411 5.15532 19.4959 7.23351 19.4959C8.50861 19.5439 9.77521 19.7253 11.0125 20.0373C12.3184 20.3639 13.6548 20.5527 15 20.6009C16.3452 20.5527 17.6817 20.3639 18.9875 20.0373C20.2248 19.7254 21.4914 19.5439 22.7665 19.4959C24.8447 19.4959 28.0516 20.6411 28.9796 20.9892C28.9921 21.0056 28.9984 21.0258 28.9972 21.0463V22.6395Z" fill="black"/>
<path d="M26.3031 21.0807C25.1884 20.744 24.036 20.5476 22.8727 20.4961C21.5588 20.5492 20.2538 20.7365 18.978 21.0548L18.7715 21.0986C18.3481 21.1895 17.9813 21.4519 17.7585 21.8233C17.5048 22.2415 17.4334 22.7455 17.5608 23.2178L17.5876 23.3232C17.6423 23.5458 17.6931 23.767 17.7424 23.9852C17.8496 24.6156 18.0467 25.2275 18.3277 25.802C18.6759 26.4355 19.1858 26.9654 19.8055 27.3376C19.9075 27.3965 20.0251 27.4409 20.1357 27.4918C20.1732 27.516 20.2137 27.5349 20.2563 27.5481C21.0899 27.87 21.9795 28.0218 22.8727 27.9946C23.8212 28.0339 24.751 27.7233 25.4855 27.1218C26.0801 26.5809 26.4144 25.7192 26.8045 24.7148C26.8895 24.4953 26.9749 24.2759 27.0618 24.0609C27.1424 23.8636 27.2263 23.6747 27.3152 23.4946C27.55 23.0198 27.5593 22.4647 27.3406 21.9824C27.1472 21.5415 26.7665 21.2106 26.3031 21.0807ZM18.9799 24.782C18.8857 24.4896 18.8061 24.1544 18.7177 23.7637C18.6665 23.5399 18.6147 23.3134 18.5581 23.0823L18.5269 22.9602C18.4699 22.7531 18.4998 22.5318 18.6099 22.3473C18.6899 22.2102 18.8232 22.1123 18.9779 22.0769L19.1928 22.0312C20.1942 21.7979 21.2098 21.6301 22.2332 21.5289L18.9799 24.782ZM19.4654 25.7104L23.6282 21.5475C24.0254 21.5942 24.4776 21.6732 24.9777 21.7837L20.2962 26.4653C19.9728 26.2702 19.6906 26.0137 19.4654 25.7104ZM26.4178 23.053C26.3193 23.2538 26.2255 23.4637 26.1352 23.6849C26.0463 23.9063 25.959 24.1296 25.8696 24.3596C25.6563 25.0978 25.2969 25.7857 24.8127 26.3823C24.261 26.8137 23.572 27.0312 22.8726 26.9948C22.3543 27.0009 21.8368 26.9511 21.3291 26.8463L26.1026 22.0726C26.2478 22.135 26.3644 22.2496 26.429 22.3939C26.5231 22.6044 26.519 22.8458 26.4178 23.053Z" fill="black"/>
<path d="M29.599 13.7362C29.2541 13.2857 28.8478 12.8857 28.3919 12.548L26.1554 4.50525C25.9619 3.77865 25.5621 3.12365 25.0042 2.61938C23.6471 1.4243 20.8098 0 15.0009 0C9.19203 0 6.35467 1.4243 4.99657 2.62055C4.43922 3.12441 4.03975 3.77895 3.84637 4.50495L1.60989 12.5477C1.15394 12.8855 0.74762 13.2855 0.402748 13.736C0.144226 14.0847 0.00444905 14.5072 0.00392181 14.9413V15.5298C0.00146137 16.1526 0.290915 16.7406 0.785991 17.1184C1.27661 17.4981 1.91703 17.6256 2.51562 17.4626C5.28702 16.7212 12.0522 14.997 15.0009 14.997C17.9495 14.997 24.7148 16.7212 27.4862 17.4626C27.656 17.5083 27.8312 17.5315 28.0071 17.5316C29.1089 17.527 29.9993 16.6317 29.9979 15.5298V14.9413C29.9974 14.5073 29.8575 14.0849 29.599 13.7362ZM4.81004 4.77273C4.9517 4.23307 5.24636 3.74579 5.65849 3.36969C6.66364 2.48464 9.21394 0.999818 15.0008 0.999818C20.7877 0.999818 23.3381 2.48458 24.3423 3.36846C24.7549 3.74497 25.0498 4.23272 25.1917 4.77297L27.1301 11.7436C24.6114 10.3862 21.1414 9.68864 18.5513 9.33709C18.8481 8.76984 19.0022 8.13873 19.0001 7.49855C19.0001 5.28983 17.2096 3.49934 15.0008 3.49934C12.7921 3.49934 11.0017 5.28978 11.0017 7.49849C10.9996 8.13873 11.1537 8.76978 11.4504 9.33709C8.86046 9.68864 5.39042 10.3862 2.87174 11.7434L4.81004 4.77273ZM18.0003 7.49849C18.001 8.10927 17.8104 8.70493 17.4553 9.20188C16.7387 9.12191 16.1331 9.0706 15.7005 9.03972C15.2347 9.00604 14.7671 9.00604 14.3014 9.03972C13.8687 9.07066 13.2631 9.12191 12.5466 9.20188C12.1915 8.70493 12.0009 8.10927 12.0016 7.49849C12.0016 5.84197 13.3444 4.49909 15.001 4.49909C16.6575 4.49909 18.0003 5.84197 18.0003 7.49849ZM28.9981 15.5298C28.9993 15.8401 28.8559 16.1333 28.6103 16.3228C28.3647 16.5124 28.0448 16.5767 27.7449 16.4969C24.2545 15.5632 17.9574 13.9972 15.0009 13.9972C12.0444 13.9972 5.74741 15.5632 2.25687 16.4969C1.95704 16.5768 1.63713 16.5124 1.39149 16.3228C1.14586 16.1332 1.00251 15.8401 1.00374 15.5298V14.9413C1.00392 14.7224 1.07421 14.5093 1.20438 14.3333C3.15077 11.7203 9.28284 10.4005 14.3726 10.0371C14.7909 10.0068 15.2109 10.0068 15.6292 10.0371C20.719 10.4005 26.851 11.7203 28.7974 14.3336C28.9276 14.5095 28.9979 14.7225 28.9981 14.9414V15.5298Z" fill="black"/>
</g>
<defs>
<clipPath id="clip0">
<rect width="30" height="30" fill="white"/>
</clipPath>
</defs>
</svg>
