<svg width="30" height="30" viewBox="0 0 30 30" fill="none" xmlns="http://www.w3.org/2000/svg">
<path d="M26.5455 27.1874V17.3901L26.7384 16.4253C27.2269 13.9795 27.4761 11.4919 27.4826 8.99782L28.9361 5.36395C29.0844 4.98932 29.1 4.57527 28.9805 4.19051C28.861 3.80576 28.6135 3.47344 28.2791 3.24872L28.2458 3.22651C27.1879 2.51855 25.9436 2.14062 24.6706 2.14062C23.3977 2.14062 22.1534 2.51855 21.0954 3.22651L21.0621 3.24872C20.7277 3.47343 20.4802 3.80574 20.3607 4.1905C20.2412 4.57526 20.2569 4.98933 20.4051 5.36395L21.8587 8.99788C21.8651 11.492 22.1143 13.9795 22.6028 16.4253L22.7958 17.3901V27.1874C22.7958 27.6847 22.9933 28.1616 23.3449 28.5133C23.6966 28.8649 24.1735 29.0624 24.6708 29.0624C25.168 29.0624 25.6449 28.8649 25.9966 28.5133C26.3482 28.1616 26.5458 27.6847 26.5458 27.1874H26.5455ZM22.6441 8.43743L21.2754 5.01555C21.2062 4.84072 21.1988 4.64747 21.2546 4.4679C21.3104 4.28833 21.4259 4.13323 21.582 4.02837L21.6153 4.00616C22.5193 3.4012 23.5826 3.07825 24.6704 3.07825C25.7582 3.07825 26.8215 3.4012 27.7256 4.00616L27.7589 4.02837C27.915 4.13322 28.0306 4.28831 28.0864 4.46788C28.1422 4.64744 28.1349 4.84069 28.0657 5.01555L26.6969 8.43743H25.711L26.0676 6.65436C26.08 6.59385 26.0804 6.53147 26.0687 6.47082C26.0569 6.41016 26.0333 6.35242 25.9992 6.30092C25.9651 6.24942 25.9211 6.20517 25.8698 6.17072C25.8186 6.13627 25.761 6.11229 25.7004 6.10018C25.6398 6.08806 25.5774 6.08804 25.5168 6.10011C25.4562 6.11219 25.3986 6.13612 25.3473 6.17053C25.296 6.20495 25.252 6.24917 25.2179 6.30065C25.1837 6.35212 25.1601 6.40985 25.1483 6.4705L24.7552 8.43743H24.5863L24.1927 6.4705C24.1809 6.40985 24.1573 6.35212 24.1231 6.30065C24.0889 6.24917 24.045 6.20495 23.9936 6.17053C23.9423 6.13612 23.8847 6.11219 23.8241 6.10011C23.7636 6.08804 23.7012 6.08806 23.6406 6.10018C23.58 6.11229 23.5224 6.13627 23.4711 6.17072C23.4199 6.20517 23.3759 6.24942 23.3418 6.30092C23.3076 6.35242 23.284 6.41016 23.2723 6.47082C23.2606 6.53147 23.2609 6.59385 23.2734 6.65436L23.6302 8.43743H22.6441ZM25.608 27.1874C25.608 27.4361 25.5092 27.6745 25.3334 27.8503C25.1576 28.0262 24.9191 28.1249 24.6705 28.1249C24.4218 28.1249 24.1834 28.0262 24.0075 27.8503C23.8317 27.6745 23.733 27.4361 23.733 27.1874V17.8124H25.608V27.1874ZM25.6927 16.8749H23.6485L23.5218 16.2414C23.0699 13.9797 22.8277 11.6811 22.7982 9.37493H26.5423C26.5306 10.3129 26.4832 11.2504 26.4 12.1874H25.1392C25.0149 12.1874 24.8957 12.2368 24.8078 12.3247C24.7198 12.4126 24.6705 12.5319 24.6705 12.6562C24.6705 12.7805 24.7198 12.8997 24.8078 12.9876C24.8957 13.0755 25.0149 13.1249 25.1392 13.1249H26.3058C26.1872 14.1708 26.0249 15.2097 25.8191 16.2414L25.6927 16.8749Z" fill="black"/>
<path d="M19.6514 15.1188L18.732 14.8124C18.5734 14.7596 18.4046 14.7452 18.2394 14.7704C18.0742 14.7956 17.9174 14.8596 17.7818 14.9573C17.6462 15.055 17.5358 15.1836 17.4597 15.3323C17.3835 15.481 17.3438 15.6457 17.3438 15.8129V20.6249C17.2194 20.6249 17.1002 20.6743 17.0123 20.7622C16.9244 20.8501 16.875 20.9694 16.875 21.0937V28.5937C16.875 28.718 16.9244 28.8372 17.0123 28.9251C17.1002 29.0131 17.2194 29.0624 17.3438 29.0624H21.0938C21.2181 29.0624 21.3373 29.0131 21.4252 28.9251C21.5131 28.8372 21.5625 28.718 21.5625 28.5937V21.0937C21.5625 20.9694 21.5131 20.8501 21.4252 20.7622C21.3373 20.6743 21.2181 20.6249 21.0938 20.6249V17.12C21.0941 16.6771 20.955 16.2454 20.6961 15.8862C20.4372 15.527 20.0716 15.2584 19.6514 15.1188ZM18.2812 15.8129C18.2812 15.7943 18.2856 15.7759 18.2941 15.7594C18.3025 15.7428 18.3148 15.7285 18.3299 15.7177C18.3449 15.7068 18.3624 15.6996 18.3807 15.6968C18.3991 15.694 18.4179 15.6956 18.4355 15.7015L19.3549 16.008C19.5884 16.0856 19.7915 16.2348 19.9354 16.4344C20.0792 16.634 20.1565 16.8739 20.1562 17.12V20.6249H18.2812V15.8129ZM20.625 28.1249H17.8125V23.4374H20.625V28.1249ZM20.625 22.4999H17.8125V21.5624H20.625V22.4999Z" fill="black"/>
<path d="M0.9375 24.8438V25.0782C0.938694 26.1346 1.35886 27.1473 2.10582 27.8943C2.85277 28.6412 3.86552 29.0614 4.92188 29.0626H11.9531C13.0095 29.0614 14.0222 28.6412 14.7692 27.8943C15.5161 27.1473 15.9363 26.1346 15.9375 25.0782V24.8438C15.9375 24.7195 15.8881 24.6003 15.8002 24.5124C15.7123 24.4245 15.5931 24.3751 15.4688 24.3751H14.3672C14.8415 23.3748 15.055 22.2708 14.9879 21.1659C14.9209 20.0609 14.5754 18.9908 13.9836 18.0553C13.3918 17.1197 12.5729 16.3491 11.6032 15.815C10.6335 15.281 9.54452 15.001 8.4375 15.001C7.33048 15.001 6.24146 15.281 5.27177 15.815C4.30207 16.3491 3.48323 17.1197 2.89144 18.0553C2.29964 18.9908 1.95413 20.0609 1.88706 21.1659C1.81998 22.2708 2.03353 23.3748 2.50781 24.3751H1.40625C1.28193 24.3751 1.1627 24.4245 1.07479 24.5124C0.986886 24.6003 0.9375 24.7195 0.9375 24.8438ZM8.4375 15.9376C9.42486 15.9377 10.3948 16.1977 11.2499 16.6914C12.1049 17.1851 12.815 17.8951 13.3087 18.7502C13.8024 19.6053 14.0624 20.5752 14.0625 21.5626C14.0626 22.5499 13.8028 23.5199 13.3093 24.3751H12.1891C12.7114 23.6786 13.0295 22.8503 13.1076 21.9832C13.1858 21.1161 13.0209 20.2443 12.6315 19.4656C12.2421 18.6869 11.6436 18.032 10.903 17.5743C10.1624 17.1166 9.30893 16.8741 8.43829 16.8741C7.56765 16.8741 6.71421 17.1166 5.97359 17.5743C5.23297 18.032 4.63444 18.6869 4.24505 19.4656C3.85566 20.2443 3.69081 21.1161 3.76895 21.9832C3.8471 22.8503 4.16516 23.6786 4.6875 24.3751H3.56572C3.07218 23.5199 2.8124 22.5499 2.8125 21.5626C2.8126 20.5752 3.07256 19.6053 3.56628 18.7502C4.05999 17.8951 4.77005 17.1851 5.62512 16.6914C6.48019 16.1977 7.45014 15.9377 8.4375 15.9376ZM9.09627 17.8717C9.48379 17.9405 9.85795 18.0703 10.2048 18.2563L5.6434 24.0617C5.41863 23.8105 5.22876 23.5302 5.07891 23.2282L9.09627 17.8717ZM4.73133 22.1291C4.6552 21.6362 4.67833 21.1331 4.79937 20.6492C4.9204 20.1654 5.1369 19.7106 5.43614 19.3116C5.73538 18.9126 6.11133 18.5774 6.54192 18.3257C6.97251 18.074 7.44905 17.9109 7.94355 17.8459L4.73133 22.1291ZM10.97 18.7998C11.354 19.152 11.6606 19.58 11.8707 20.0567C11.8707 20.0567 8.50242 24.3488 8.48883 24.3751H6.58945L10.97 18.7998ZM7.03125 25.3126H9.84375C9.96807 25.3126 10.0873 25.362 10.1752 25.4499C10.2631 25.5378 10.3125 25.657 10.3125 25.7813C10.3125 25.9057 10.2631 26.0249 10.1752 26.1128C10.0873 26.2007 9.96807 26.2501 9.84375 26.2501H7.03125C6.90693 26.2501 6.7877 26.2007 6.69979 26.1128C6.61189 26.0249 6.5625 25.9057 6.5625 25.7813C6.5625 25.657 6.61189 25.5378 6.69979 25.4499C6.7877 25.362 6.90693 25.3126 7.03125 25.3126ZM9.66984 24.3751L12.1692 21.194C12.1809 21.3154 12.1875 21.4382 12.1875 21.5626C12.1885 22.0949 12.0756 22.6213 11.8564 23.1063C11.6372 23.5914 11.3168 24.024 10.9167 24.3751H9.66984ZM5.70563 25.3126C5.63053 25.5247 5.60743 25.7517 5.63828 25.9746C5.66913 26.1974 5.75303 26.4096 5.88291 26.5934C6.0128 26.7771 6.18489 26.9269 6.38471 27.0303C6.58453 27.1337 6.80626 27.1877 7.03125 27.1876H9.84375C10.0687 27.1877 10.2904 27.1338 10.4902 27.0304C10.69 26.927 10.8621 26.7772 10.992 26.5936C11.1219 26.4099 11.2058 26.1977 11.2367 25.9749C11.2676 25.7521 11.2445 25.5251 11.1695 25.313L11.1714 25.3126H14.9911C14.9311 26.0775 14.5852 26.7917 14.0222 27.313C13.4591 27.8342 12.7204 28.1242 11.9531 28.1251H4.92188C4.15462 28.1242 3.41587 27.8342 2.85285 27.313C2.28982 26.7917 1.94386 26.0775 1.88391 25.3126H5.70563Z" fill="black"/>
<path d="M14.2712 7.89028L15.0225 8.39108C15.3838 8.63223 15.676 8.96336 15.8704 9.35184L15.987 9.58516C16.026 9.66301 16.0858 9.72848 16.1599 9.77424C16.2339 9.82 16.3192 9.84423 16.4063 9.84423C16.4933 9.84423 16.5786 9.82 16.6527 9.77424C16.7267 9.72848 16.7866 9.66301 16.8255 9.58516L16.9422 9.35184C17.1365 8.9633 17.4288 8.63211 17.7901 8.3909L18.5413 7.8901C18.6143 7.84143 18.6722 7.77323 18.7084 7.69328C18.7446 7.61333 18.7576 7.52483 18.7459 7.43785C18.7343 7.35088 18.6984 7.26892 18.6425 7.2013C18.5866 7.13368 18.5128 7.08312 18.4295 7.05538C18.0624 6.93203 17.7288 6.72531 17.4549 6.45145C17.1811 6.17758 16.9744 5.844 16.851 5.47686C16.8199 5.38351 16.7602 5.3023 16.6804 5.24476C16.6006 5.18722 16.5047 5.15625 16.4063 5.15625C16.3079 5.15625 16.212 5.18722 16.1322 5.24476C16.0523 5.3023 15.9927 5.38351 15.9616 5.47686C15.8382 5.844 15.6315 6.17758 15.3576 6.45145C15.0838 6.72531 14.7502 6.93203 14.383 7.05538C14.2998 7.08312 14.226 7.13368 14.1701 7.2013C14.1141 7.26892 14.0783 7.35088 14.0666 7.43785C14.055 7.52483 14.068 7.61333 14.1042 7.69328C14.1403 7.77323 14.1982 7.84143 14.2712 7.8901V7.89028ZM16.4063 6.6546C16.6584 7.01371 16.9763 7.32172 17.3433 7.56227L17.2701 7.61108C16.9361 7.83386 16.6438 8.11342 16.4063 8.43708C16.1688 8.11334 15.8765 7.83372 15.5425 7.6109L15.4693 7.5621C15.8362 7.3216 16.1542 7.01365 16.4063 6.6546Z" fill="black"/>
<path d="M13.2733 9.86788C12.9061 9.74453 12.5726 9.53781 12.2987 9.26395C12.0248 8.99008 11.8181 8.6565 11.6948 8.28936C11.6637 8.19601 11.604 8.1148 11.5242 8.05726C11.4443 7.99972 11.3484 7.96875 11.25 7.96875C11.1516 7.96875 11.0557 7.99972 10.9759 8.05726C10.8961 8.1148 10.8364 8.19601 10.8053 8.28936C10.682 8.6565 10.4752 8.99008 10.2014 9.26395C9.9275 9.53781 9.59392 9.74453 9.22679 9.86788C9.14353 9.89563 9.06974 9.94618 9.01381 10.0138C8.95788 10.0814 8.92205 10.1634 8.9104 10.2504C8.89875 10.3373 8.91175 10.4258 8.94792 10.5058C8.98409 10.5857 9.04197 10.6539 9.11499 10.7026L9.86622 11.2034C10.2275 11.4446 10.5198 11.7757 10.7141 12.1642L10.8308 12.3975C10.8697 12.4753 10.9296 12.5408 11.0036 12.5866C11.0777 12.6323 11.163 12.6566 11.25 12.6566C11.3371 12.6566 11.4224 12.6323 11.4964 12.5866C11.5705 12.5408 11.6303 12.4753 11.6693 12.3975L11.7859 12.1642C11.9803 11.7756 12.2725 11.4444 12.6338 11.2032L13.3851 10.7024C13.4581 10.6538 13.516 10.5856 13.5521 10.5056C13.5883 10.4257 13.6013 10.3372 13.5897 10.2502C13.578 10.1632 13.5422 10.0812 13.4863 10.0136C13.4303 9.94601 13.3565 9.89545 13.2733 9.8677V9.86788ZM12.1138 10.4234C11.7799 10.6462 11.4875 10.9257 11.25 11.2494C11.0126 10.9257 10.7202 10.646 10.3862 10.4232L10.3131 10.3744C10.68 10.1339 10.9979 9.82598 11.25 9.46692C11.5021 9.82604 11.8201 10.134 12.187 10.3746L12.1138 10.4234Z" fill="black"/>
<path d="M14.5088 4.17198L15.2601 3.67118C15.333 3.62249 15.3909 3.5543 15.427 3.47437C15.4631 3.39444 15.4761 3.30597 15.4645 3.21903C15.4528 3.13209 15.417 3.05016 15.3611 2.98256C15.3052 2.91496 15.2315 2.8644 15.1483 2.83663C14.7811 2.71328 14.4476 2.50656 14.1737 2.2327C13.8998 1.95883 13.6931 1.62525 13.5698 1.25811C13.5387 1.16476 13.479 1.08355 13.3992 1.02601C13.3193 0.968466 13.2234 0.9375 13.125 0.9375C13.0266 0.9375 12.9307 0.968466 12.8509 1.02601C12.7711 1.08355 12.7114 1.16476 12.6803 1.25811C12.557 1.62525 12.3502 1.95883 12.0764 2.2327C11.8025 2.50656 11.4689 2.71328 11.1018 2.83663C11.0185 2.86437 10.9447 2.91493 10.8888 2.98255C10.8329 3.05017 10.797 3.13213 10.7854 3.2191C10.7737 3.30608 10.7867 3.39458 10.8229 3.47453C10.8591 3.55448 10.917 3.62268 10.99 3.67135L11.7412 4.17198C12.1025 4.41318 12.3948 4.74437 12.5891 5.13292L12.7058 5.36624C12.7447 5.44409 12.8046 5.50956 12.8786 5.55531C12.9527 5.60107 13.038 5.62531 13.125 5.62531C13.2121 5.62531 13.2974 5.60107 13.3714 5.55531C13.4455 5.50956 13.5053 5.44409 13.5443 5.36624L13.6609 5.13292C13.8553 4.74437 14.1475 4.41318 14.5088 4.17198ZM13.125 4.21815C12.8876 3.89442 12.5952 3.6148 12.2612 3.39198L12.1881 3.34317C12.555 3.10267 12.8729 2.79473 13.125 2.43567C13.3771 2.79479 13.6951 3.1028 14.062 3.34335L13.9888 3.39215C13.6549 3.61494 13.3625 3.89449 13.125 4.21815Z" fill="black"/>
</svg>
