<svg width="30" height="30" viewBox="0 0 30 30" fill="none" xmlns="http://www.w3.org/2000/svg">
<g clip-path="url(#clip0)">
<path d="M28.4249 20.2629L15.8789 12.9925V12.4516C15.8789 11.8347 16.2309 11.2609 16.7977 10.9541C18.0745 10.263 18.8334 8.93179 18.7783 7.48007C18.7038 5.5177 17.1084 3.92208 15.1465 3.84761C14.1083 3.80776 13.1252 4.18253 12.3781 4.90165C11.6306 5.6213 11.2189 6.58903 11.2189 7.62649C11.2189 8.11188 11.6124 8.5054 12.0978 8.5054C12.5832 8.5054 12.9767 8.11188 12.9767 7.62649C12.9767 7.07114 13.1971 6.55323 13.5972 6.16798C13.9969 5.78325 14.5228 5.58245 15.0797 5.60413C16.1289 5.64397 16.9819 6.49727 17.0218 7.54675C17.0513 8.3247 16.6448 9.03796 15.9609 9.40821C14.8261 10.0225 14.1211 11.1886 14.1211 12.4516V12.9925L1.57506 20.2629C0.603516 20.8259 0 21.8733 0 22.9963C0 24.7383 1.41691 26.1554 3.15855 26.1554H26.8414C28.5831 26.1554 30 24.7382 30 22.9963C30 21.8733 29.3965 20.8259 28.4249 20.2629ZM26.8414 24.3975H3.15855C2.38617 24.3975 1.75781 23.7689 1.75781 22.9963C1.75781 22.4981 2.02547 22.0335 2.45643 21.7839L15 14.5149L27.5436 21.7839C27.9745 22.0336 28.2422 22.4981 28.2422 22.9963C28.2422 23.769 27.6138 24.3975 26.8414 24.3975Z" fill="black"/>
</g>
<defs>
<clipPath id="clip0">
<rect width="30" height="30" fill="white"/>
</clipPath>
</defs>
</svg>
