<svg width="30" height="30" viewBox="0 0 30 30" fill="none" xmlns="http://www.w3.org/2000/svg">
<g clip-path="url(#clip0)">
<path d="M28 0H15V1H28C28.5522 1 29 1.44775 29 2V28C29 28.5522 28.5522 29 28 29H18V30H28C29.1045 30 30 29.1045 30 28V2C30 0.895508 29.1045 0 28 0Z" fill="black"/>
<path d="M21 3C19.7085 3.00049 18.4795 3.55518 17.625 4.52344L18.375 5.18555C19.594 3.80347 21.6758 3.60352 23.1357 4.72803C24.5955 5.85278 24.9334 7.91675 23.9082 9.448C22.8831 10.9792 20.846 11.4534 19.25 10.532L18.75 11.3975C20.3884 12.343 22.4431 12.1631 23.8921 10.947C25.3411 9.73096 25.875 7.73877 25.228 5.96118C24.5811 4.18359 22.8916 3.00024 21 3Z" fill="black"/>
<path d="M21 10C22.3806 10 23.5 8.88062 23.5 7.5C23.5 6.11938 22.3806 5 21 5C19.6194 5 18.5 6.11938 18.5 7.5C18.5017 8.88013 19.6199 9.99829 21 10ZM21 6C21.8284 6 22.5 6.67163 22.5 7.5C22.5 8.32837 21.8284 9 21 9C20.1716 9 19.5 8.32837 19.5 7.5C19.5 6.67163 20.1716 6 21 6Z" fill="black"/>
<path d="M21 13.5C17.7519 13.4888 14.9265 15.7222 14.1875 18.8851L15.1604 19.115C15.7522 16.6224 17.8613 14.7806 20.4109 14.5296C22.9604 14.2789 25.3879 15.6746 26.4541 18.004C27.5203 20.3335 26.9895 23.0831 25.133 24.8484C23.2768 26.6141 20.5041 27.0062 18.231 25.8245L17.769 26.711C20.3462 28.0508 23.4831 27.6595 25.6526 25.7278C27.822 23.7962 28.573 20.7256 27.54 18.0108C26.5071 15.2959 23.9048 13.501 21 13.5Z" fill="black"/>
<path d="M21 24.4999C20.0161 24.5006 19.0664 24.1378 18.3335 23.4814L17.6665 24.2265C19.3474 25.7294 21.8262 25.9213 23.7183 24.6952C25.6106 23.4691 26.448 21.1281 25.7629 18.9801C25.0779 16.8319 23.0398 15.4079 20.7871 15.5036C18.5344 15.5993 16.6245 17.1908 16.124 19.3893L17.0991 19.6105C17.5645 17.5697 19.5244 16.2328 21.5942 16.5446C23.6641 16.8561 25.1435 18.7106 24.9878 20.7978C24.8318 22.8852 23.093 24.4994 21 24.4999Z" fill="black"/>
<path d="M27 2H28V3H27V2Z" fill="black"/>
<path d="M14 27H15V28H14V27Z" fill="black"/>
<path d="M27 27H28V28H27V27Z" fill="black"/>
<path d="M1.5 30H15.5C16.3284 30 17 29.3284 17 28.5V21.5C17 20.6716 16.3284 20 15.5 20H12.3384L11.4646 17.814C11.3884 17.6243 11.2046 17.4998 11 17.5H6C5.79541 17.4998 5.61157 17.6243 5.5354 17.814L4.66162 20H1.5C0.671631 20 0 20.6716 0 21.5V28.5C0 29.3284 0.671631 30 1.5 30ZM1 21.5C1 21.2239 1.22388 21 1.5 21H5C5.20459 21.0002 5.38843 20.8757 5.4646 20.686L6.33838 18.5H10.6616L11.5354 20.686C11.6116 20.8757 11.7954 21.0002 12 21H15.5C15.7761 21 16 21.2239 16 21.5V28.5C16 28.7761 15.7761 29 15.5 29H1.5C1.22388 29 1 28.7761 1 28.5V21.5Z" fill="black"/>
<path d="M8.5 28C10.4331 28 12 26.4331 12 24.5C12 22.5669 10.4331 21 8.5 21C6.56689 21 5 22.5669 5 24.5C5.0022 26.4321 6.56787 27.9978 8.5 28ZM8.5 22C9.88062 22 11 23.1194 11 24.5C11 25.8806 9.88062 27 8.5 27C7.11938 27 6 25.8806 6 24.5C6.00171 23.1199 7.11987 22.0017 8.5 22Z" fill="black"/>
<path d="M2.5 22H3.5V23H2.5V22Z" fill="black"/>
<path d="M13 22H15V23H13V22Z" fill="black"/>
<path d="M0.5 12H2.04004C2.26294 13.533 3.46704 14.7371 5 14.96V15C5 15.8284 5.67163 16.5 6.5 16.5C7.32837 16.5 8 15.8284 8 15V8C8 7.17163 7.32837 6.5 6.5 6.5C5.67163 6.5 5 7.17163 5 8V8.04004C4.23975 8.14917 3.53687 8.50586 3 9.05493V9C3 5.68628 5.68628 3 9 3C12.3137 3 15 5.68628 15 9V9.05493C14.4631 8.50586 13.7603 8.14917 13 8.04004V8C13 7.17163 12.3284 6.5 11.5 6.5C10.6716 6.5 10 7.17163 10 8V15C10 15.8284 10.6716 16.5 11.5 16.5C12.3284 16.5 13 15.8284 13 15V14.96C14.533 14.7371 15.7371 13.533 15.96 12H17.5C17.7761 12 18 11.7761 18 11.5V9C18 4.02954 13.9705 0 9 0C4.02954 0 0 4.02954 0 9V11.5C0 11.7761 0.223877 12 0.5 12ZM6 14.5V8C6 7.72388 6.22388 7.5 6.5 7.5C6.77612 7.5 7 7.72388 7 8V15C7 15.2761 6.77612 15.5 6.5 15.5C6.22388 15.5 6 15.2761 6 15V14.5ZM12 8.5V15C12 15.2761 11.7761 15.5 11.5 15.5C11.2239 15.5 11 15.2761 11 15V8C11 7.72388 11.2239 7.5 11.5 7.5C11.7761 7.5 12 7.72388 12 8V8.5ZM13 13.95V9.05005C14.1653 9.28662 15.0024 10.311 15.0024 11.5C15.0024 12.689 14.1653 13.7134 13 13.95ZM5 9.05005V13.95C3.83472 13.7134 2.99756 12.689 2.99756 11.5C2.99756 10.311 3.83472 9.28662 5 9.05005ZM1 9C1 4.58179 4.58179 1 9 1C13.4182 1 17 4.58179 17 9V11H16V9C16 5.13403 12.866 2 9 2C5.13403 2 2 5.13403 2 9V11H1V9Z" fill="black"/>
</g>
<defs>
<clipPath id="clip0">
<rect width="30" height="30" fill="white"/>
</clipPath>
</defs>
</svg>
