<svg width="30" height="30" viewBox="0 0 30 30" fill="none" xmlns="http://www.w3.org/2000/svg">
<path d="M27.1875 17.8125V16.4062C27.1869 15.7848 26.9398 15.1891 26.5003 14.7497C26.0609 14.3102 25.4652 14.0631 24.8438 14.0625H16.875C16.511 14.0625 16.1519 14.1473 15.8264 14.3104C15.5009 14.4734 15.218 14.7102 15 15.0018C14.782 14.7102 14.4991 14.4734 14.1736 14.3104C13.8481 14.1473 13.489 14.0625 13.125 14.0625H5.15625C4.53484 14.0631 3.93906 14.3102 3.49965 14.7497C3.06025 15.1891 2.81312 15.7848 2.8125 16.4062V17.8125C2.19109 17.8131 1.59531 18.0602 1.1559 18.4997C0.7165 18.9391 0.46937 19.5348 0.46875 20.1562V28.5938C0.46875 28.7181 0.518136 28.8373 0.606044 28.9252C0.693951 29.0131 0.81318 29.0625 0.9375 29.0625H29.0625C29.1868 29.0625 29.306 29.0131 29.394 28.9252C29.4819 28.8373 29.5312 28.7181 29.5312 28.5938V20.1562C29.5306 19.5348 29.2835 18.9391 28.8441 18.4997C28.4047 18.0602 27.8089 17.8131 27.1875 17.8125ZM5.15625 28.125H1.40625V20.1562C1.40675 19.7834 1.55506 19.426 1.81868 19.1624C2.08229 18.8988 2.43969 18.7505 2.8125 18.75H3.75C4.12281 18.7505 4.48021 18.8988 4.74382 19.1624C5.00744 19.426 5.15575 19.7834 5.15625 20.1562V28.125ZM3.75 17.8125V16.4062C3.7505 16.0334 3.89881 15.676 4.16243 15.4124C4.42604 15.1488 4.78344 15.0005 5.15625 15H13.125C13.4978 15.0005 13.8552 15.1488 14.1188 15.4124C14.3824 15.676 14.5308 16.0334 14.5312 16.4062V22.0324C14.1261 21.727 13.6324 21.562 13.125 21.5625H7.5C6.99262 21.562 6.49891 21.727 6.09375 22.0324V20.1562C6.09313 19.5348 5.846 18.9391 5.4066 18.4997C4.96719 18.0602 4.37141 17.8131 3.75 17.8125ZM14.5312 23.9062V25.3125H6.09375V23.9062C6.09425 23.5334 6.24256 23.176 6.50618 22.9124C6.76979 22.6488 7.12719 22.5005 7.5 22.5H13.125C13.4978 22.5005 13.8552 22.6488 14.1188 22.9124C14.3824 23.176 14.5308 23.5334 14.5312 23.9062ZM23.9062 28.125H6.09375V26.25H23.9062V28.125ZM23.9062 25.3125H15.4688V23.9062C15.4692 23.5334 15.6176 23.176 15.8812 22.9124C16.1448 22.6488 16.5022 22.5005 16.875 22.5H22.5C22.8728 22.5005 23.2302 22.6488 23.4938 22.9124C23.7574 23.176 23.9058 23.5334 23.9062 23.9062V25.3125ZM23.9062 20.1562V22.0324C23.5011 21.727 23.0074 21.562 22.5 21.5625H16.875C16.3676 21.562 15.8739 21.727 15.4688 22.0324V16.4062C15.4692 16.0334 15.6176 15.676 15.8812 15.4124C16.1448 15.1488 16.5022 15.0005 16.875 15H24.8438C25.2166 15.0005 25.574 15.1488 25.8376 15.4124C26.1012 15.676 26.2495 16.0334 26.25 16.4062V17.8125C25.6286 17.8131 25.0328 18.0602 24.5934 18.4997C24.154 18.9391 23.9069 19.5348 23.9062 20.1562ZM28.5938 28.125H24.8438V20.1562C24.8442 19.7834 24.9926 19.426 25.2562 19.1624C25.5198 18.8988 25.8772 18.7505 26.25 18.75H27.1875C27.5603 18.7505 27.9177 18.8988 28.1813 19.1624C28.4449 19.426 28.5933 19.7834 28.5938 20.1562V28.125Z" fill="black"/>
<path d="M22.0312 0.9375H7.96875C7.84443 0.9375 7.7252 0.986886 7.63729 1.07479C7.54939 1.1627 7.5 1.28193 7.5 1.40625V11.7188C7.5 11.8431 7.54939 11.9623 7.63729 12.0502C7.7252 12.1381 7.84443 12.1875 7.96875 12.1875H22.0312C22.1556 12.1875 22.2748 12.1381 22.3627 12.0502C22.4506 11.9623 22.5 11.8431 22.5 11.7188V1.40625C22.5 1.28193 22.4506 1.1627 22.3627 1.07479C22.2748 0.986886 22.1556 0.9375 22.0312 0.9375ZM21.5625 11.25H8.4375V1.875H21.5625V11.25Z" fill="black"/>
<path d="M20.625 2.34375H9.375C9.25068 2.34375 9.13145 2.39314 9.04354 2.48104C8.95564 2.56895 8.90625 2.68818 8.90625 2.8125V10.3125C8.90625 10.4368 8.95564 10.556 9.04354 10.644C9.13145 10.7319 9.25068 10.7812 9.375 10.7812H20.625C20.7493 10.7812 20.8685 10.7319 20.9565 10.644C21.0444 10.556 21.0938 10.4368 21.0938 10.3125V2.8125C21.0938 2.68818 21.0444 2.56895 20.9565 2.48104C20.8685 2.39314 20.7493 2.34375 20.625 2.34375ZM11.3133 9.84375L12.6562 8.23242L13.9992 9.84375H11.3133ZM15.2197 9.84375L14.243 8.67188L16.1525 6.38027L18.75 9.84375H15.2197ZM20.1562 9.84375H19.9219L16.5469 5.34375C16.5044 5.28712 16.4497 5.24083 16.3868 5.20836C16.3239 5.1759 16.2545 5.1581 16.1837 5.15629C16.113 5.15449 16.0427 5.16873 15.9783 5.19795C15.9138 5.22717 15.8568 5.2706 15.8115 5.325L13.633 7.93945L13.0166 7.2C12.9726 7.14718 12.9175 7.10468 12.8552 7.07552C12.7929 7.04635 12.725 7.03124 12.6562 7.03124C12.5875 7.03124 12.5196 7.04635 12.4573 7.07552C12.395 7.10468 12.3399 7.14718 12.2959 7.2L10.0928 9.84375H9.84375V3.28125H20.1562V9.84375Z" fill="black"/>
<path d="M12.6562 6.5625C12.9344 6.5625 13.2063 6.48002 13.4375 6.3255C13.6688 6.17098 13.849 5.95135 13.9555 5.6944C14.0619 5.43744 14.0897 5.15469 14.0355 4.8819C13.9812 4.60912 13.8473 4.35855 13.6506 4.16188C13.4539 3.96521 13.2034 3.83128 12.9306 3.77702C12.6578 3.72276 12.3751 3.75061 12.1181 3.85704C11.8611 3.96348 11.6415 4.14372 11.487 4.37498C11.3325 4.60624 11.25 4.87812 11.25 5.15625C11.2504 5.52908 11.3987 5.88652 11.6623 6.15015C11.926 6.41379 12.2834 6.56208 12.6562 6.5625ZM12.6562 4.6875C12.749 4.6875 12.8396 4.71499 12.9167 4.7665C12.9938 4.818 13.0538 4.89121 13.0893 4.97687C13.1248 5.06252 13.1341 5.15677 13.116 5.2477C13.0979 5.33863 13.0533 5.42215 12.9877 5.4877C12.9221 5.55326 12.8386 5.5979 12.7477 5.61599C12.6568 5.63408 12.5625 5.6248 12.4769 5.58932C12.3912 5.55384 12.318 5.49376 12.2665 5.41667C12.215 5.33959 12.1875 5.24896 12.1875 5.15625C12.1876 5.03197 12.2371 4.91282 12.3249 4.82495C12.4128 4.73707 12.532 4.68764 12.6562 4.6875Z" fill="black"/>
</svg>
