<svg width="30" height="30" viewBox="0 0 30 30" fill="none" xmlns="http://www.w3.org/2000/svg">
<path d="M2.92969 12.9937C2.82093 12.9937 2.71664 13.0369 2.63973 13.1139C2.56283 13.1908 2.51959 13.295 2.51953 13.4038V15.2202C2.51953 15.329 2.56274 15.4333 2.63966 15.5102C2.71658 15.5871 2.82091 15.6304 2.92969 15.6304C3.03847 15.6304 3.14279 15.5871 3.21971 15.5102C3.29663 15.4333 3.33984 15.329 3.33984 15.2202V13.4038C3.33978 13.295 3.29655 13.1908 3.21964 13.1139C3.14274 13.0369 3.03845 12.9937 2.92969 12.9937Z" fill="black"/>
<path d="M8.07715 14.5547C7.3007 14.5547 6.54169 14.7849 5.8961 15.2163C5.25051 15.6477 4.74733 16.2608 4.4502 16.9781C4.15307 17.6955 4.07532 18.4848 4.2268 19.2464C4.37828 20.0079 4.75217 20.7074 5.3012 21.2564C5.85023 21.8054 6.54974 22.1793 7.31127 22.3308C8.07279 22.4823 8.86214 22.4046 9.57948 22.1074C10.2968 21.8103 10.9099 21.3071 11.3413 20.6615C11.7727 20.0159 12.0029 19.2569 12.0029 18.4805C12.0018 17.4396 11.5878 16.4418 10.8518 15.7058C10.1158 14.9699 9.11797 14.5559 8.07715 14.5547ZM8.07715 21.5859C7.46295 21.5859 6.86254 21.4038 6.35184 21.0626C5.84115 20.7213 5.44312 20.2363 5.20807 19.6689C4.97303 19.1014 4.91153 18.477 5.03135 17.8746C5.15118 17.2722 5.44694 16.7189 5.88125 16.2846C6.31556 15.8503 6.8689 15.5545 7.4713 15.4347C8.07371 15.3148 8.69811 15.3763 9.26556 15.6114C9.83301 15.8464 10.318 16.2445 10.6593 16.7552C11.0005 17.2659 11.1826 17.8663 11.1826 18.4805C11.1817 19.3038 10.8542 20.0932 10.272 20.6753C9.68983 21.2575 8.90049 21.585 8.07715 21.5859Z" fill="black"/>
<path d="M27.0703 20.8008H21.5766L21.6202 20.377V20.3716L22.1827 14.9107C22.1825 14.9094 22.1825 14.908 22.1827 14.9067L22.6406 10.4716C22.6465 10.4145 22.6403 10.3569 22.6224 10.3023C22.6046 10.2478 22.5755 10.1976 22.5371 10.155C22.4987 10.1124 22.4517 10.0783 22.3993 10.055C22.3469 10.0317 22.2902 10.0196 22.2328 10.0195H14.7783C14.5715 9.53747 14.2497 9.11345 13.8411 8.7845C13.4325 8.45556 12.9496 8.23172 12.4345 8.13256V6.03514C12.4345 5.9812 12.4238 5.9278 12.4032 5.878C12.3825 5.82819 12.3522 5.78294 12.314 5.74485C12.2758 5.70676 12.2305 5.67656 12.1806 5.65599C12.1308 5.63543 12.0774 5.62489 12.0234 5.62498H9.18984V3.88193H11.5146C11.6234 3.88193 11.7277 3.83872 11.8046 3.7618C11.8816 3.68488 11.9248 3.58056 11.9248 3.47178C11.9256 2.98418 11.7457 2.51359 11.4198 2.15092C11.0938 1.78826 10.6451 1.55926 10.1602 1.50818L6.48609 1.1156C6.42888 1.10949 6.37102 1.11548 6.31628 1.13319C6.26153 1.15089 6.21112 1.17992 6.16833 1.21838C6.12553 1.25684 6.09131 1.30388 6.06788 1.35643C6.04446 1.40898 6.03235 1.46588 6.03234 1.52342V3.47178C6.03241 3.58054 6.07564 3.68483 6.15254 3.76173C6.22945 3.83864 6.33374 3.88187 6.4425 3.88193H6.96328V5.62498H4.13203C4.02327 5.62504 3.91898 5.66827 3.84208 5.74518C3.76517 5.82209 3.72194 5.92637 3.72187 6.03514V8.13279C2.98814 8.27608 2.32692 8.66966 1.85115 9.24632C1.37538 9.82297 1.11457 10.5469 1.11328 11.2945V27.0703C1.11384 27.5519 1.30539 28.0135 1.64591 28.3541C1.98643 28.6946 2.44812 28.8861 2.92969 28.8867H13.2258C13.5858 28.8871 13.9378 28.7798 14.2364 28.5787C14.2588 28.6667 14.3099 28.7447 14.3815 28.8004C14.4531 28.8562 14.5413 28.8865 14.632 28.8867H28.4766C28.5853 28.8866 28.6896 28.8434 28.7665 28.7665C28.8434 28.6896 28.8867 28.5853 28.8867 28.4765V22.6172C28.8862 22.1356 28.6946 21.6739 28.3541 21.3334C28.0136 20.9929 27.5519 20.8013 27.0703 20.8008ZM28.0664 22.6172V22.6758H19.7461V22.6172C19.7464 22.3531 19.8514 22.0999 20.0382 21.9132C20.2249 21.7264 20.4781 21.6214 20.7422 21.6211H27.0703C27.3344 21.6214 27.5876 21.7264 27.7743 21.9132C27.9611 22.0999 28.0661 22.3531 28.0664 22.6172ZM20.7422 20.8008C20.2606 20.8013 19.7989 20.9929 19.4584 21.3334C19.1179 21.6739 18.9263 22.1356 18.9258 22.6172V25.0031H15.0021L14.562 20.7398H20.7581L20.7518 20.8008H20.7422ZM13.999 15.2789H21.3209L20.8427 19.9195H14.4773L14.4056 19.2253L13.999 15.2789ZM21.4052 14.4586H13.9134L13.5401 10.8398H21.7781L21.4052 14.4586ZM6.85266 1.97975L10.073 2.32381C10.2851 2.34621 10.4869 2.42704 10.6559 2.5573C10.8248 2.68756 10.9543 2.86214 11.0299 3.06162H8.78531H8.77969H8.77406H7.37906H7.37344H7.36781H6.85219L6.85266 1.97975ZM7.78359 3.88193H8.36953V5.62498H7.78359V3.88193ZM11.6133 6.44529V8.07185H4.54219V6.44529H11.6133ZM13.2258 28.0664H2.92969C2.6656 28.0661 2.41242 27.961 2.22569 27.7743C2.03895 27.5876 1.9339 27.3344 1.93359 27.0703V11.2945C1.93428 10.6576 2.1876 10.0469 2.63798 9.59655C3.08836 9.14617 3.69901 8.89285 4.33594 8.89217H11.8195C12.2268 8.89145 12.6275 8.9946 12.9838 9.19186C13.3401 9.38912 13.6402 9.67398 13.8558 10.0195H13.0852C13.0277 10.0195 12.9709 10.0316 12.9185 10.0549C12.866 10.0782 12.819 10.1123 12.7805 10.1549C12.7421 10.1976 12.713 10.2478 12.6952 10.3024C12.6774 10.357 12.6712 10.4147 12.6771 10.4719L13.6073 19.4819L13.699 20.3726V20.3749L14.2219 25.4344V27.0703C14.2216 27.3344 14.1165 27.5876 13.9298 27.7743C13.743 27.961 13.4899 28.0661 13.2258 28.0664ZM15.0422 27.0703V25.8234H18.9258V28.0664H15.0422V27.0703ZM28.0664 28.0664H19.7461V23.4961H28.0664V28.0664Z" fill="black"/>
<path d="M23.9063 24.043C23.1095 24.043 22.4609 24.823 22.4609 25.7813C22.4609 26.7397 23.1095 27.5197 23.9063 27.5197C24.7032 27.5197 25.3517 26.7397 25.3517 25.7813C25.3517 24.823 24.7032 24.043 23.9063 24.043ZM23.9063 26.6994C23.5677 26.6994 23.2813 26.2789 23.2813 25.7813C23.2813 25.2838 23.5677 24.8633 23.9063 24.8633C24.245 24.8633 24.5314 25.2838 24.5314 25.7813C24.5314 26.2789 24.245 26.6994 23.9063 26.6994Z" fill="black"/>
</svg>
