<svg width="32" height="29" viewBox="0 0 32 29" fill="none" xmlns="http://www.w3.org/2000/svg">
<path d="M28.5232 4.03098C27.7996 3.30707 26.9405 2.73281 25.9949 2.34101C25.0494 1.94922 24.0359 1.74756 23.0123 1.74756C21.9888 1.74756 20.9753 1.94922 20.0298 2.34101C19.0842 2.73281 18.2251 3.30707 17.5015 4.03098L15.9998 5.53264L14.4982 4.03098C13.0366 2.56941 11.0543 1.74832 8.98734 1.74832C6.92038 1.74832 4.93807 2.56941 3.47651 4.03098C2.01495 5.49254 1.19385 7.47485 1.19385 9.54181C1.19385 11.6088 2.01495 13.5911 3.47651 15.0526L4.97818 16.5543L15.9998 27.576L27.0215 16.5543L28.5232 15.0526C29.2471 14.3291 29.8213 13.47 30.2131 12.5244C30.6049 11.5788 30.8066 10.5653 30.8066 9.54181C30.8066 8.51829 30.6049 7.50479 30.2131 6.55922C29.8213 5.61366 29.2471 4.75455 28.5232 4.03098V4.03098Z" stroke="#FF0000" stroke-width="2" stroke-linecap="round" stroke-linejoin="round"/>
</svg>
