<svg width="28" height="32" viewBox="0 0 28 32" fill="none" xmlns="http://www.w3.org/2000/svg">
<path d="M5.5 1.83325L1.25 7.49992V27.3333C1.25 28.0847 1.54851 28.8054 2.07986 29.3367C2.61122 29.8681 3.33189 30.1666 4.08333 30.1666H23.9167C24.6681 30.1666 25.3888 29.8681 25.9201 29.3367C26.4515 28.8054 26.75 28.0847 26.75 27.3333V7.49992L22.5 1.83325H5.5Z" stroke="#00ADFF" stroke-width="2" stroke-linecap="round" stroke-linejoin="round"/>
<path d="M1.25 7.5H26.75" stroke="#00ADFF" stroke-width="2" stroke-linecap="round" stroke-linejoin="round"/>
<path d="M19.6668 13.1667C19.6668 14.6696 19.0698 16.111 18.0071 17.1737C16.9444 18.2364 15.5031 18.8334 14.0002 18.8334C12.4973 18.8334 11.0559 18.2364 9.99322 17.1737C8.93052 16.111 8.3335 14.6696 8.3335 13.1667" stroke="#00ADFF" stroke-width="2" stroke-linecap="round" stroke-linejoin="round"/>
</svg>
