<svg width="34" height="34" viewBox="0 0 34 34" fill="none" xmlns="http://www.w3.org/2000/svg">
<path d="M8.5 2.8335L4.25 8.50016V28.3335C4.25 29.0849 4.54851 29.8056 5.07986 30.337C5.61122 30.8683 6.33189 31.1668 7.08333 31.1668H26.9167C27.6681 31.1668 28.3888 30.8683 28.9201 30.337C29.4515 29.8056 29.75 29.0849 29.75 28.3335V8.50016L25.5 2.8335H8.5Z" stroke="#828282" stroke-width="2" stroke-linecap="round" stroke-linejoin="round"/>
<path d="M4.25 8.5H29.75" stroke="#828282" stroke-width="2" stroke-linecap="round" stroke-linejoin="round"/>
<path d="M22.6663 14.1665C22.6663 15.6694 22.0693 17.1107 21.0066 18.1734C19.9439 19.2361 18.5026 19.8332 16.9997 19.8332C15.4968 19.8332 14.0554 19.2361 12.9927 18.1734C11.93 17.1107 11.333 15.6694 11.333 14.1665" stroke="#828282" stroke-width="2" stroke-linecap="round" stroke-linejoin="round"/>
</svg>
