<svg width="10" height="16" viewBox="0 0 10 16" fill="none" xmlns="http://www.w3.org/2000/svg">
<path d="M1.06051 8.67971H2.96125V15.706C2.96125 15.7726 2.99073 15.8365 3.04318 15.8835C3.09564 15.9306 3.16679 15.9571 3.24098 15.9571H6.46467C6.53886 15.9571 6.61 15.9306 6.66246 15.8835C6.71492 15.8365 6.7444 15.7726 6.7444 15.706V8.71264H8.93059C8.99914 8.71254 9.06528 8.68985 9.11642 8.64888C9.16756 8.6079 9.20016 8.55149 9.20803 8.49037L9.54048 5.90336C9.545 5.86822 9.54121 5.83262 9.52934 5.79889C9.51746 5.76517 9.49778 5.73407 9.47159 5.70765C9.4454 5.68122 9.41328 5.66006 9.37734 5.64555C9.3414 5.63104 9.30245 5.62351 9.26304 5.62346H6.74095V4.00272C6.74095 3.51392 7.03444 3.26592 7.61223 3.26592H9.25846C9.33265 3.26592 9.40379 3.23947 9.45625 3.19238C9.50871 3.14529 9.53819 3.08143 9.53819 3.01484V0.64084C9.5388 0.574599 9.51023 0.510824 9.4587 0.463408C9.40716 0.415993 9.33683 0.388779 9.26304 0.387695L6.99202 0.387695H6.8877C5.84192 0.391008 4.83253 0.732606 4.04461 1.34985C3.67281 1.6415 3.38754 2.01149 3.21446 2.42658C3.04137 2.84167 2.98588 3.28886 3.05296 3.72796V5.62449H1.05706C0.982875 5.62449 0.91173 5.65094 0.859271 5.69803C0.806813 5.74512 0.777344 5.80898 0.777344 5.87557V8.42863C0.777341 8.46186 0.784684 8.49476 0.798956 8.52543C0.813228 8.5561 0.834147 8.58391 0.860487 8.60727C0.886827 8.63063 0.918067 8.64906 0.952403 8.66149C0.986738 8.67393 1.02349 8.68012 1.06051 8.67971Z" fill="white"/>
</svg>
