<svg width="23" height="24" viewBox="0 0 23 24" fill="none" xmlns="http://www.w3.org/2000/svg">
<path d="M5.93548 0C2.65741 0 0 2.68629 0 6V9.75H1.48387V6C1.48387 3.51472 3.47693 1.5 5.93548 1.5H9.64516V0H5.93548Z" fill="#00ADFF"/>
<path d="M5.93548 24C2.65741 24 0 21.3137 0 18V14.25H1.48387V18C1.48387 20.4853 3.47693 22.5 5.93548 22.5H9.64516V24H5.93548Z" fill="#00ADFF"/>
<path d="M23 6C23 2.68629 20.3426 0 17.0645 0H13.3548V1.5H17.0645C19.5231 1.5 21.5161 3.51472 21.5161 6V9.75H23V6Z" fill="#00ADFF"/>
<path d="M17.0645 24C20.3426 24 23 21.3137 23 18V14.25H21.5161V18C21.5161 20.4853 19.5231 22.5 17.0645 22.5H13.3548V24H17.0645Z" fill="#00ADFF"/>
<path d="M7.41935 5.625C7.41935 6.66053 6.58891 7.5 5.56452 7.5C4.54012 7.5 3.70968 6.66053 3.70968 5.625C3.70968 4.58947 4.54012 3.75 5.56452 3.75C6.58891 3.75 7.41935 4.58947 7.41935 5.625Z" fill="#00ADFF"/>
<path d="M17.0645 12C17.0645 14.8995 14.7393 17.25 11.871 17.25C9.00265 17.25 6.67742 14.8995 6.67742 12C6.67742 9.1005 9.00265 6.75 11.871 6.75C14.7393 6.75 17.0645 9.1005 17.0645 12Z" fill="#00ADFF"/>
</svg>
