<svg width="20" height="13" viewBox="0 0 20 13" fill="none" xmlns="http://www.w3.org/2000/svg">
<path d="M19.2916 1.46685C18.5906 1.71395 17.8491 1.87822 17.0901 1.95462C17.8903 1.57133 18.4887 0.964274 18.7718 0.248469C18.0234 0.606953 17.2048 0.859612 16.3511 0.995553C15.8273 0.542733 15.1468 0.227741 14.3983 0.091564C13.6497 -0.0446128 12.8678 0.00432865 12.1541 0.232021C11.4405 0.459714 10.8282 0.855615 10.397 1.36821C9.96576 1.88081 9.73553 2.48638 9.73624 3.10611C9.73345 3.34268 9.76336 3.57876 9.82543 3.80997C8.305 3.74968 6.81745 3.4309 5.46001 2.87446C4.10258 2.31802 2.90582 1.53645 1.94797 0.58085C1.45605 1.25991 1.3037 2.06504 1.52202 2.83178C1.74034 3.59852 2.31287 4.269 3.12264 4.70627C2.51783 4.6933 1.92575 4.56307 1.39631 4.32655V4.36051C1.39712 5.07288 1.70153 5.76331 2.25837 6.31576C2.81521 6.86821 3.59053 7.24899 4.45403 7.39411C4.12693 7.46419 3.78975 7.49879 3.45135 7.49702C3.2085 7.50058 2.96587 7.48299 2.72769 7.44454C2.97435 8.05677 3.44976 8.59227 4.08856 8.97739C4.72736 9.36251 5.49817 9.57835 6.29503 9.59523C4.94377 10.448 3.27803 10.9109 1.56321 10.9103C1.25748 10.9121 0.951932 10.898 0.648438 10.8681C2.39537 11.7773 4.43091 12.2584 6.50907 12.2532C7.94014 12.2613 9.35894 12.0396 10.683 11.6011C12.0072 11.1625 13.2102 10.5159 14.2222 9.69861C15.2343 8.88137 16.0352 7.90985 16.5785 6.84049C17.1218 5.77112 17.3966 4.62523 17.3869 3.46936C17.3869 3.3325 17.3869 3.20078 17.3729 3.07009C18.1279 2.63444 18.7782 2.09112 19.2916 1.46685Z" fill="white"/>
</svg>
