<svg width="34" height="34" viewBox="0 0 34 34" fill="none" xmlns="http://www.w3.org/2000/svg">
<path d="M29.5237 6.53098C28.8001 5.80707 27.941 5.23281 26.9954 4.84101C26.0498 4.44922 25.0364 4.24756 24.0128 4.24756C22.9893 4.24756 21.9758 4.44922 21.0302 4.84101C20.0847 5.23281 19.2256 5.80707 18.502 6.53098L17.0003 8.03264L15.4987 6.53098C14.0371 5.06941 12.0548 4.24832 9.98783 4.24832C7.92087 4.24832 5.93856 5.06941 4.477 6.53098C3.01543 7.99254 2.19434 9.97485 2.19434 12.0418C2.19434 14.1088 3.01543 16.0911 4.477 17.5526L5.97866 19.0543L17.0003 30.076L28.022 19.0543L29.5237 17.5526C30.2476 16.8291 30.8218 15.97 31.2136 15.0244C31.6054 14.0788 31.8071 13.0653 31.8071 12.0418C31.8071 11.0183 31.6054 10.0048 31.2136 9.05922C30.8218 8.11366 30.2476 7.25455 29.5237 6.53098V6.53098Z" stroke="#828282" stroke-width="2" stroke-linecap="round" stroke-linejoin="round"/>
</svg>
